<?xml version="1.0" standalone="no"?>
<!DOCTYPE svg PUBLIC "-//W3C//DTD SVG 20010904//EN"
 "http://www.w3.org/TR/2001/REC-SVG-20010904/DTD/svg10.dtd">
<svg version="1.0" xmlns="http://www.w3.org/2000/svg"
 width="256.000000pt" height="256.000000pt" viewBox="0 0 256.000000 256.000000"
 preserveAspectRatio="xMidYMid meet">
<metadata>
Created by potrace 1.11, written by Peter Selinger 2001-2013
</metadata>
<g transform="translate(0.000000,256.000000) scale(0.100000,-0.100000)"
fill="#000000" stroke="none">
<path d="M1109 2549 c-412 -58 -777 -317 -966 -684 -51 -100 -95 -225 -118
-335 -28 -131 -25 -416 4 -518 5 -18 10 -36 11 -40 3 -23 13 -60 20 -77 4 -11
16 -42 25 -70 105 -297 359 -568 667 -709 78 -36 210 -80 268 -90 19 -3 46 -8
60 -12 57 -13 317 -12 405 2 399 66 756 327 937 689 38 74 94 225 104 278 32
167 41 352 22 474 -64 422 -321 778 -697 968 -83 41 -265 104 -326 111 -22 3
-47 8 -55 11 -24 9 -300 11 -361 2z m341 -83 c178 -28 337 -89 491 -192 325
-215 525 -576 533 -964 7 -330 -115 -639 -344 -869 -94 -95 -153 -139 -285
-214 -266 -152 -616 -184 -930 -86 -380 118 -687 442 -790 834 -67 252 -53
495 41 739 84 219 244 420 441 554 162 110 366 185 558 204 49 6 237 1 285 -6z"/>
<path d="M750 1860 c-5 -3 -8 -33 -7 -65 l2 -60 -67 -3 -68 -3 0 -39 0 -40 65
0 c45 0 65 -4 66 -12 1 -7 1 -36 1 -65 0 -56 7 -62 59 -55 24 3 26 8 26 50 1
86 -3 81 66 84 l62 3 2 38 2 37 -67 0 -67 0 0 64 1 64 -33 4 c-18 2 -38 1 -43
-2z"/>
<path d="M1729 1833 c0 -5 -1 -28 -2 -53 l-1 -45 -56 -5 -55 -5 1 -40 0 -40
55 3 55 2 1 -50 c1 -28 4 -54 7 -58 3 -5 21 -6 40 -4 l36 4 0 55 c0 53 1 54
28 53 77 -5 82 -3 82 40 l0 40 -55 0 -55 0 0 55 0 55 -40 0 c-22 0 -40 -3 -41
-7z"/>
<path d="M413 1002 c-20 -3 -23 -9 -21 -43 1 -36 3 -39 32 -40 38 0 1544 0
1637 1 l66 0 0 40 c0 34 -3 40 -21 41 -71 2 -1675 3 -1693 1z"/>
</g>
</svg>
